<?xml version="1.0" encoding="UTF-8" standalone="no"?>
<!-- Created with Inkscape (http://www.inkscape.org/) -->

<svg
   width="236mm"
   height="270mm"
   viewBox="0 0 236 270"
   version="1.1"
   id="svg1"
   inkscape:version="1.4.3 (0d15f75, 2025-12-25)"
   sodipodi:docname="N.I.C - Bumble.svg"
   inkscape:export-filename="CIhw.png"
   inkscape:export-xdpi="96"
   inkscape:export-ydpi="96"
   xml:space="preserve"
   xmlns:inkscape="http://www.inkscape.org/namespaces/inkscape"
   xmlns:sodipodi="http://sodipodi.sourceforge.net/DTD/sodipodi-0.dtd"
   xmlns:xlink="http://www.w3.org/1999/xlink"
   xmlns="http://www.w3.org/2000/svg"
   xmlns:svg="http://www.w3.org/2000/svg"
   xmlns:bx="https://boxy-svg.com"><sodipodi:namedview
     id="namedview1"
     pagecolor="#ffffff"
     bordercolor="#000000"
     borderopacity="0.25"
     inkscape:showpageshadow="2"
     inkscape:pageopacity="0.0"
     inkscape:pagecheckerboard="0"
     inkscape:deskcolor="#d1d1d1"
     inkscape:document-units="mm"
     showguides="true"
     showgrid="true"
     inkscape:zoom="0.7239206"
     inkscape:cx="401.97779"
     inkscape:cy="437.20264"
     inkscape:window-width="1920"
     inkscape:window-height="1057"
     inkscape:window-x="-8"
     inkscape:window-y="-8"
     inkscape:window-maximized="1"
     inkscape:current-layer="layer1"
     inkscape:export-bgcolor="#ffffffff"
     inkscape:lockguides="false"><inkscape:grid
       id="grid1928"
       units="mm"
       originx="0"
       originy="0"
       spacingx="0.99999998"
       spacingy="1"
       empcolor="#0099e5"
       empopacity="0.30196078"
       color="#0099e5"
       opacity="0.14902"
       empspacing="5"
       enabled="true"
       visible="true" /></sodipodi:namedview><defs
     id="defs1"><linearGradient
       id="swatch2152"
       inkscape:swatch="solid"><stop
         style="stop-color:#cd0000;stop-opacity:1;"
         offset="0"
         id="stop2152" /></linearGradient><linearGradient
       id="swatch2150"
       inkscape:swatch="solid"><stop
         style="stop-color:#ff0808;stop-opacity:1;"
         offset="0"
         id="stop2150" /></linearGradient><linearGradient
       id="swatch3"
       inkscape:swatch="solid"><stop
         style="stop-color:#000000;stop-opacity:1;"
         offset="0"
         id="stop3" /></linearGradient><linearGradient
       id="swatch2"
       inkscape:swatch="solid"><stop
         style="stop-color:#626262;stop-opacity:1;"
         offset="0"
         id="stop2" /></linearGradient><linearGradient
       id="swatch1"
       inkscape:swatch="solid"><stop
         style="stop-color:#999999;stop-opacity:1;"
         offset="0"
         id="stop1" /></linearGradient><clipPath
       clipPathUnits="userSpaceOnUse"
       id="clipPath2047"><path
         id="path2048"
         style="fill:#ff0000;fill-opacity:1;fill-rule:nonzero;stroke:none;stroke-width:0.123774"
         d="M 14.03969,-3.4014176 V 62.749702 h 69.5554 V -3.4014176 Z m 34.751176,0.029705 h 2.54e-4 2.54e-4 v 2.415e-4 c 0.05272,0.6280659 0.06252,1.2534538 0.04338,1.8834509 -0.06627,1.89462341 -0.344587,3.7742983 -0.64327,5.6461095 -0.379337,2.0593782 -0.599798,4.1387551 -0.80043,6.2192317 -0.137467,1.406186 -0.244368,2.815147 -0.330435,4.224975 -0.03138,0.540548 -0.06018,1.081294 -0.07635,1.62247 -0.02677,0.318303 0.04124,0.628239 0.113781,0.936421 6.34e-4,0.003 0.0016,0.006 0.0022,0.009 -6.34e-4,-0.003 -0.0019,-0.0058 -0.0025,-0.0087 -0.07256,-0.308222 -0.140797,-0.618315 -0.11403,-0.936657 0.01615,-0.541181 0.04498,-1.082153 0.07635,-1.622706 0.08607,-1.409833 0.192964,-2.818547 0.330434,-4.224739 0.200632,-2.0804865 0.421089,-4.1598489 0.80043,-6.2192319 0.298679,-1.8717918 0.576995,-3.75174348 0.64327,-5.6463452 0.01914,-0.6299926 0.0093,-1.2551539 -0.04338,-1.8832153 z M 73.710307,12.218096 h 2.54e-4 2.54e-4 v 2.41e-4 2.41e-4 h -2.54e-4 c -0.11195,0.09525 -0.224655,0.189921 -0.348283,0.271591 -0.440804,0.332473 -0.858701,0.692091 -1.306865,1.016106 -0.66035,0.50078 -1.32333,0.998359 -1.978643,1.505063 -0.729416,0.581075 -1.423714,1.200223 -2.153403,1.780899 -0.802329,0.639267 -1.603711,1.280179 -2.441944,1.877084 -1.247504,0.878219 -2.541964,1.69583 -3.822187,2.529893 -1.937818,1.257377 -3.880052,2.51932 -5.698449,3.930752 -0.261337,0.215691 -0.533674,0.42002 -0.784071,0.647149 -0.157951,0.143277 -0.294753,0.306079 -0.438761,0.462081 -0.505181,0.547245 -0.951733,1.136916 -1.390652,1.73304 -0.200996,0.265537 -0.402038,0.531749 -0.607079,0.795203 0.03661,0.09938 0.07324,0.19869 0.110063,0.297995 0.236287,0.150396 0.473767,0.29917 0.711439,0.447229 0.953337,0.597401 1.935243,1.151495 2.902768,1.72738 1.397316,0.878748 2.829137,1.702296 4.283258,2.49288 1.246745,0.672535 2.50695,1.322472 3.755505,1.991898 0.28304,0.158324 0.57137,0.30768 0.860171,0.456187 h 2.54e-4 v 2.42e-4 2.41e-4 h -2.54e-4 -2.54e-4 C 65.074372,36.032983 64.786052,35.883629 64.503003,35.725304 63.254449,35.055878 61.99425,34.405942 60.7475,33.733407 c -1.454129,-0.79059 -2.885938,-1.614133 -4.283258,-2.49288 -0.967538,-0.57589 -1.949428,-1.129973 -2.90277,-1.72738 -0.237503,-0.147954 -0.474842,-0.296485 -0.710943,-0.446758 0.295035,0.795707 0.597244,1.589037 0.909997,2.37901 0.595702,1.476835 1.20572,2.948523 1.860897,4.402498 0.09854,0.221332 0.201571,0.440866 0.306637,0.659408 0.254085,-0.448239 0.492103,-0.904914 0.70896,-1.372333 0.319183,-0.660127 0.662584,-1.325882 0.823484,-2.040464 h 2.54e-4 v -2.42e-4 h 2.53e-4 v 2.42e-4 h 2.54e-4 v 2.41e-4 c -0.160903,0.714621 -0.504529,1.380306 -0.823732,2.040463 -0.21692,0.467558 -0.455047,0.924217 -0.709208,1.37257 0.189001,0.393108 0.384836,0.783326 0.574356,1.176184 v 2.42e-4 h -2.53e-4 v 2.41e-4 h -2.54e-4 v -2.41e-4 c -0.189473,-0.392745 -0.385409,-0.782725 -0.574357,-1.175713 -0.474419,0.83684 -1.004418,1.644437 -1.555994,2.438655 -0.09942,0.144368 -0.200626,0.287489 -0.303415,0.429548 1.793983,2.110048 3.560979,4.240794 5.315712,6.380487 1.699194,-1.189399 3.36772,-2.455241 5.165986,-3.490596 0.107069,-0.05369 0.206525,-0.127884 0.313083,-0.182946 0.200099,-0.244387 0.391401,-0.49475 0.566177,-0.755126 v -2.41e-4 h 2.54e-4 2.54e-4 v 2.41e-4 l -2.54e-4,2.42e-4 c -0.174574,0.260078 -0.365331,0.510303 -0.565186,0.754418 0.05851,-0.03015 0.119216,-0.05468 0.18443,-0.06672 0.09174,-0.01693 0.131103,0.04507 0.140553,0.132495 -0.01245,-0.06142 -0.07574,-0.143976 -0.140306,-0.132024 -0.06564,0.01214 -0.126798,0.03677 -0.185668,0.06719 -0.266688,0.325699 -0.54923,0.64052 -0.830176,0.953158 -0.987151,1.14159 -2.178657,2.08456 -3.427052,2.954017 -0.218836,0.152802 -0.439926,0.302202 -0.663101,0.448407 0.281767,0.344345 0.563268,0.688851 0.844555,1.033553 1.083321,-1.037249 2.134139,-2.104312 3.115457,-3.230795 0.534284,-0.645524 0.598375,-0.663183 0.972463,-1.292647 0.0097,-0.01639 0.02179,-0.03596 0.03545,-0.05823 -0.01172,0.0195 -0.02336,0.03895 -0.03495,0.05847 -0.374024,0.629412 -0.438269,0.647227 -0.972464,1.292648 -0.981358,1.126528 -2.032349,2.193688 -3.115704,3.231029 0.729474,0.893937 1.457635,1.788888 2.185381,2.684077 1.970322,2.414404 3.913608,4.84992 5.961459,7.205868 l 0.446694,0.502396 2.54e-4,2.41e-4 v 2.42e-4 h -2.54e-4 -2.54e-4 C 69.232306,57.699093 69.08339,57.531615 68.934503,57.364156 66.886647,55.008208 64.943125,52.572695 62.972796,50.158288 62.245051,49.2631 61.516874,48.368161 60.787415,47.474211 c -0.922412,0.883219 -1.868237,1.744787 -2.814769,2.603213 -0.406159,0.379938 -0.823342,0.748939 -1.244397,1.113946 0.671854,0.569963 1.352133,1.131163 2.040119,1.683529 -0.688044,-0.55232 -1.36852,-1.113336 -2.040368,-1.683295 -0.929797,0.806017 -1.8787,1.592746 -2.770891,2.436062 -0.0868,0.08734 -0.188247,0.163426 -0.260283,0.262162 -0.02625,0.03596 -0.09712,0.217987 0.02181,0.246364 0.264336,0.06302 0.93204,-0.128859 1.163588,-0.177053 1.404389,-0.323875 2.823397,-0.584715 4.251528,-0.792375 h 2.54e-4 c 0.04408,-0.0064 0.08828,-0.01279 0.132374,-0.0191 1.178436,-0.161906 2.370646,-0.248693 3.561406,-0.256266 0.407183,0.01261 0.951587,-0.02008 1.224568,0.341138 0.06173,0.08169 0.09669,0.178811 0.145014,0.268291 0.0409,0.102981 0.08179,0.206093 0.122704,0.309074 v 2.42e-4 2.41e-4 h -2.54e-4 v -2.41e-4 h -2.54e-4 v -2.42e-4 c -0.04089,-0.102967 -0.08183,-0.205872 -0.122703,-0.308839 -0.04828,-0.08943 -0.08308,-0.186651 -0.144768,-0.26829 -0.272871,-0.361131 -0.81727,-0.328266 -1.224318,-0.340903 -1.190736,0.0076 -2.382751,0.09437 -3.561159,0.256267 -0.044,0.0063 -0.0879,0.0127 -0.131878,0.0191 1.191972,0.947935 2.40624,1.870204 3.63875,2.768712 0.602928,0.43954 1.219295,0.862014 1.828918,1.293119 1.273816,0.879391 2.56384,1.738451 3.881431,2.557712 0.114162,0.07098 1.27974,0.780342 1.48832,0.886677 0.167301,0.08529 0.347528,0.145204 0.521308,0.217838 0.136438,0.03903 0.272823,0.07812 0.409263,0.11717 h 2.54e-4 v 2.42e-4 2.41e-4 h -2.54e-4 -2.54e-4 c -0.136457,-0.03904 -0.2728,-0.07812 -0.409263,-0.117171 -0.173791,-0.07265 -0.353992,-0.132775 -0.521307,-0.218074 -0.208587,-0.106339 -1.374158,-0.815458 -1.488321,-0.88644 -1.31761,-0.819267 -2.60785,-1.678315 -3.881678,-2.557712 -0.609628,-0.431109 -1.225735,-0.853815 -1.828671,-1.293355 -1.232591,-0.898568 -2.446956,-1.820956 -3.638996,-2.768948 -1.428226,0.207662 -2.847296,0.468476 -4.251775,0.792372 -0.231462,0.04818 -0.900105,0.240209 -1.164331,0.176818 -0.119041,-0.02856 -0.04795,-0.210939 -0.02157,-0.247073 0.07203,-0.09874 0.173481,-0.174586 0.260282,-0.261923 0.892187,-0.843311 1.84093,-1.630222 2.770645,-2.436298 -0.697031,-0.591331 -1.384859,-1.192274 -2.062676,-1.803294 -0.155017,0.07666 -0.309901,0.153527 -0.464295,0.231276 -0.158198,0.08689 -0.323611,0.162525 -0.48239,0.248722 -0.01871,0.01317 -0.03587,0.0251 -0.05156,0.03607 0.01515,-0.01068 0.03162,-0.02238 0.04958,-0.03513 -0.02407,0.01308 -0.04792,0.02643 -0.07164,0.04008 -0.02598,0.01495 -0.119963,0.08564 -0.128405,0.09572 -0.0084,0.0014 0.09933,-0.07937 0.128158,-0.09595 0.02492,-0.01434 0.05005,-0.02848 0.07536,-0.0422 0.01536,-0.01091 0.03183,-0.02264 0.04933,-0.03513 0.250196,-0.19188 0.501354,-0.382505 0.753332,-0.572179 -1.183622,-1.071684 -2.33623,-2.174283 -3.452833,-3.309536 -0.503537,-0.514834 -1.014368,-1.023359 -1.518561,-1.537598 -0.300836,0.282083 -0.604934,0.560401 -0.886696,0.860036 v 2.42e-4 h -2.54e-4 -2.54e-4 v -2.42e-4 -2.41e-4 -2.42e-4 c 0.281733,-0.299604 0.586111,-0.577984 0.886945,-0.860036 -0.288397,-0.294147 -0.574713,-0.59007 -0.856206,-0.890213 -0.761281,-0.811727 -3.071597,-3.441259 -3.801859,-4.342853 -0.02764,-0.03412 -0.055,-0.06842 -0.0823,-0.102791 -0.277937,0.670861 -0.543504,1.346503 -0.793738,2.027735 -0.301555,0.810707 -0.379591,0.996671 -0.63856,1.773117 -0.157615,0.47257 -0.332915,0.965306 -0.335889,1.467814 v 2.41e-4 l -2.54e-4,2.42e-4 h -2.54e-4 v -2.42e-4 -2.41e-4 c 0.003,-0.502557 0.17826,-0.995198 0.335889,-1.467814 0.258953,-0.776409 0.337025,-0.962701 0.63856,-1.773353 0.250271,-0.681323 0.515763,-1.357026 0.793738,-2.027969 -0.373365,-0.47012 -0.716252,-0.961782 -1.072613,-1.443768 -1.163956,-1.574286 -0.895288,-1.207212 -1.878246,-2.63221 -0.809042,-1.189121 -1.597716,-2.390212 -2.366092,-3.603523 v -2.41e-4 h 2.54e-4 2.54e-4 c 0.768372,1.213311 1.557051,2.414404 2.36609,3.603524 0.982955,1.424992 0.71405,1.057929 1.878001,2.63221 0.356344,0.481969 0.699262,0.973459 1.072611,1.443531 0.61278,-1.479028 1.286052,-2.935003 1.989797,-4.377273 0.397975,-0.808476 0.813687,-1.609447 1.251835,-2.399049 -1.22972,-1.467975 -2.453251,-2.940553 -3.670726,-4.417823 -0.644963,-0.803614 -1.253162,-1.629663 -1.863871,-2.456808 v -2.41e-4 -2.41e-4 h 2.54e-4 2.54e-4 v 2.41e-4 c 0.610707,0.827145 1.218909,1.653195 1.863869,2.456809 1.217424,1.477209 2.440868,2.949668 3.670479,4.417587 0.431092,-0.776868 0.883886,-1.54267 1.362641,-2.293901 0.478562,-0.711682 0.967325,-1.418062 1.469481,-2.115199 0.0071,-0.05105 0.01447,-0.10195 0.02157,-0.153006 -0.228762,-0.172479 -0.453742,-0.34985 -0.67376,-0.533042 -1.034054,-0.859726 -2.029476,-1.769292 -2.843772,-2.826946 -0.293289,-0.385458 -0.790031,-0.980829 -0.840836,-1.474651 v -2.42e-4 h 2.54e-4 2.53e-4 v 2.42e-4 c 0.05082,0.493694 0.547608,1.088815 0.840837,1.47418 0.814271,1.057621 1.8095,1.967248 2.843523,2.826945 0.219973,0.183157 0.4448,0.360357 0.673513,0.532807 0.0046,-0.03278 0.0091,-0.06553 0.01363,-0.09831 0.136072,-0.94498 0.291133,-1.887542 0.391911,-2.836846 -0.357821,-0.94434 -0.732557,-1.883397 -1.057241,-2.838498 V 21.9612 h 2.54e-4 2.54e-4 v 2.42e-4 c 0.324564,0.954761 0.699035,1.893364 1.056747,2.837318 0.0015,-0.01403 0.003,-0.02817 0.0045,-0.0422 0.07413,-0.670422 0.143875,-1.343168 0.139561,-2.018069 v -2.41e-4 h 2.54e-4 2.54e-4 v 2.41e-4 c 0.0045,0.674918 -0.06543,1.347866 -0.139561,2.018303 -0.0015,0.01431 -0.0029,0.02859 -0.0045,0.04291 0.05461,0.144118 0.108776,0.288394 0.162367,0.432846 0.148036,0.421005 0.296373,0.841956 0.445703,1.262472 0.08128,-0.10934 0.161874,-0.219288 0.240948,-0.330059 0.03122,-0.04579 0.06247,-0.09166 0.0937,-0.137445 v -2.41e-4 h 2.54e-4 v 2.41e-4 h 2.54e-4 v 2.42e-4 h -2.54e-4 c -0.03122,0.04579 -0.06223,0.09165 -0.09345,0.137444 -0.07916,0.110886 -0.159801,0.220841 -0.241195,0.330295 0.269372,0.758547 0.541732,1.516032 0.820014,2.271503 0.204929,-0.263323 0.405924,-0.529547 0.60683,-0.794967 0.438929,-0.596129 0.885462,-1.185785 1.390652,-1.73304 0.144009,-0.156005 0.280806,-0.319036 0.438761,-0.462315 0.250412,-0.227151 0.522715,-0.431207 0.784071,-0.646914 1.818412,-1.411443 3.760858,-2.673602 5.698698,-3.930987 1.280211,-0.834065 2.574688,-1.651678 3.822185,-2.529894 0.838227,-0.596898 1.639622,-1.237824 2.441946,-1.877085 0.729686,-0.580676 1.423738,-1.19982 2.153155,-1.780898 0.655318,-0.506703 1.318542,-1.004043 1.978891,-1.504828 0.448161,-0.324016 0.866066,-0.683631 1.306865,-1.016106 0.123621,-0.08166 0.236342,-0.176349 0.348283,-0.271591 z m -26.523773,5.240137 c 0.03695,0.104183 0.07618,0.207755 0.107832,0.313555 0.02716,0.08371 0.03856,0.170835 0.05156,0.257208 v 2.42e-4 h -2.54e-4 v 2.41e-4 h -2.54e-4 v -2.41e-4 -2.42e-4 c -0.01303,-0.08636 -0.02441,-0.173284 -0.05156,-0.256972 -0.03166,-0.105823 -0.07046,-0.209588 -0.107335,-0.313791 z m 4.124857,7.342607 c -0.100781,0.949025 -0.255626,1.891437 -0.391663,2.836138 -0.0046,0.03283 -0.0091,0.06572 -0.01363,0.09855 0.01915,0.01444 0.0383,0.02877 0.05751,0.04314 0.06053,-0.08368 0.121272,-0.167202 0.182197,-0.250608 0.252652,-0.347595 0.517128,-0.687548 0.773659,-1.032609 C 51.770098,26.07483 51.621585,25.65386 51.47351,25.232744 51.420043,25.08862 51.365876,24.944638 51.311391,24.80084 Z m 0.608318,1.695082 c -0.256521,0.344945 -0.521088,0.684894 -0.77366,1.032374 -0.06092,0.0834 -0.121676,0.166934 -0.182196,0.250608 0.535773,0.400953 1.092333,0.776223 1.657131,1.139878 0.03968,-0.05035 0.07912,-0.10077 0.118491,-0.151355 -0.278278,-0.75545 -0.550432,-1.512988 -0.819766,-2.271505 z m -1.013862,1.240073 c -0.007,0.05063 -0.014,0.101429 -0.02107,0.152065 0.02614,-0.03629 0.05236,-0.07268 0.07858,-0.108921 -0.01915,-0.01433 -0.03842,-0.02875 -0.05751,-0.04314 z m 0.05776,0.04338 c -0.02634,0.03641 -0.05257,0.07292 -0.07883,0.109391 -0.159316,1.140125 -0.327822,2.279109 -0.5342,3.412326 0.364552,-0.326279 0.721566,-0.660074 1.068399,-1.00314 0.432277,-0.433934 0.824863,-0.900508 1.201762,-1.378699 -0.564847,-0.363677 -1.121343,-0.738907 -1.657131,-1.139878 z m -0.07957,0.110335 c -0.501971,0.696961 -0.99054,1.402995 -1.468986,2.11449 -0.478795,0.751304 -0.931503,1.517181 -1.36264,2.294137 0.159223,0.190082 0.3185,0.380132 0.477928,0.570057 0.217877,-0.191489 0.437079,-0.381541 0.658639,-0.569113 0.39305,-0.325821 0.780963,-0.657718 1.16086,-0.997718 0.206342,-1.133029 0.374908,-2.271933 0.534199,-3.411853 z m 1.855689,0.878188 c -0.03928,0.05046 -0.07865,0.100885 -0.118242,0.15112 0.07588,0.04885 0.151906,0.09746 0.228057,0.145932 -0.0367,-0.09897 -0.07333,-0.198007 -0.109815,-0.297052 z m -0.11849,0.151591 c -0.376969,0.478269 -0.769703,0.944977 -1.202009,1.378934 -0.346967,0.343199 -0.704207,0.676984 -1.068893,1.003376 -0.02371,0.130177 -0.04788,0.260394 -0.07263,0.390411 -0.183756,0.871676 -0.360995,1.744636 -0.533704,2.618301 0.721487,0.854906 1.445051,1.708107 2.170756,2.559835 0.722686,0.831586 1.440236,1.667033 2.153403,2.505845 0.102747,-0.142004 0.203784,-0.285003 0.303168,-0.429311 0.551646,-0.79432 1.081767,-1.602151 1.556241,-2.439127 C 55.822437,36.289095 55.719522,36.069561 55.620925,35.848109 54.96575,34.394126 54.355731,32.922455 53.76003,31.44561 53.447182,30.6554 53.144904,29.861841 52.849785,29.065893 52.773445,29.017303 52.6973,28.968463 52.621232,28.919489 Z m -2.271398,2.383017 c -0.379765,0.339871 -0.767702,0.671539 -1.160612,0.997246 -0.221527,0.187544 -0.44079,0.37765 -0.658639,0.569114 0.403679,0.480896 0.808164,0.961277 1.213164,1.441174 0.172627,-0.873523 0.349718,-1.746232 0.533457,-2.61783 0.02472,-0.129839 0.04895,-0.259702 0.07263,-0.389704 z m -2.297675,0.996303 c -0.438102,0.789526 -0.853906,1.590428 -1.251834,2.398813 -0.703782,1.442345 -1.377234,2.898387 -1.990045,4.377509 0.02731,0.03438 0.0549,0.06865 0.08255,0.102789 0.730247,0.901576 3.040601,3.531151 3.801859,4.342853 0.281521,0.300172 0.567778,0.596232 0.856206,0.890449 0.01993,-0.01868 0.03985,-0.03739 0.05974,-0.05611 0.705407,-0.668286 1.41101,-1.338136 2.056231,-2.060267 0.844894,-0.93862 1.664262,-1.899926 2.401044,-2.918182 -0.713168,-0.838844 -1.430701,-1.67448 -2.153404,-2.506082 -0.725639,-0.851648 -1.449059,-1.704772 -2.170508,-2.559598 -0.143372,0.725272 -0.283726,1.450996 -0.421905,2.177202 -0.22279,1.115583 -0.399884,2.238895 -0.521309,3.368476 -0.05522,0.523269 -0.08915,1.048204 -0.114523,1.573432 v 2.42e-4 h -2.54e-4 v -2.42e-4 c 0.02539,-0.52524 0.05905,-1.050156 0.114277,-1.573432 0.121423,-1.129594 0.298763,-2.253118 0.521556,-3.368712 0.138196,-0.726284 0.278325,-1.452141 0.421658,-2.177438 -0.405073,-0.479961 -0.809411,-0.960446 -1.213165,-1.441409 -0.221015,0.19425 -0.440649,0.389942 -0.659876,0.585852 h -2.54e-4 -2.54e-4 v -2.41e-4 l 2.54e-4,-2.42e-4 c 0.219205,-0.195888 0.438893,-0.39163 0.659878,-0.585853 -0.159399,-0.189881 -0.318735,-0.379783 -0.477929,-0.569821 z m 6.015995,7.078325 c -0.736754,1.018203 -1.555935,1.979362 -2.400795,2.917946 -0.64523,0.722142 -1.351065,1.392208 -2.056479,2.060503 -0.01985,0.01869 -0.03961,0.03746 -0.05949,0.05611 0.504165,0.514283 1.014808,1.022797 1.518316,1.537599 1.116608,1.135259 2.269194,2.237842 3.452831,3.309535 1.31022,-0.986247 2.642936,-1.944758 3.98133,-2.89649 0.294656,-0.198348 0.587718,-0.400534 0.879754,-0.604951 -1.754646,-2.139702 -3.521552,-4.270208 -5.315463,-6.380251 z m 10.794285,2.707652 c -0.106111,0.055 -0.205415,0.128752 -0.312092,0.182239 -1.798279,1.035355 -3.466821,2.301188 -5.165986,3.490597 0.186269,0.227132 0.372479,0.454246 0.558492,0.681569 0.223172,-0.146192 0.444272,-0.295373 0.6631,-0.448171 1.248369,-0.869433 2.43968,-1.812453 3.426805,-2.954017 0.280683,-0.312343 0.563207,-0.62684 0.829681,-0.952217 z m 0.327708,0.06837 c 0.01426,0.07673 -0.0031,0.169589 -0.03619,0.265461 -0.0047,0.01456 -0.0095,0.02843 -0.01463,0.04149 -0.01964,0.05021 -0.04226,0.09931 -0.06668,0.147584 0.03095,-0.0618 0.05955,-0.126078 0.08131,-0.189077 0.02629,-0.0821 0.04395,-0.18427 0.03619,-0.265461 z m -5.806281,3.604702 c -0.292005,0.204399 -0.584877,0.406622 -0.879507,0.604949 -1.338346,0.951704 -2.671101,1.910048 -3.98133,2.896257 0.04721,0.04274 0.09449,0.08561 0.141793,0.128251 0.569008,-0.281397 1.13967,-0.559902 1.694066,-0.86711 1.222015,-0.651628 2.429857,-1.324886 3.583469,-2.080542 -0.186004,-0.227322 -0.372234,-0.454673 -0.558491,-0.681805 z m 0.558739,0.682041 c -1.153614,0.755711 -2.361443,1.429144 -3.583469,2.080778 -0.554344,0.307179 -1.125117,0.585505 -1.694067,0.866873 0.677792,0.610998 1.365669,1.211984 2.062676,1.803295 0.421033,-0.365046 0.838229,-0.733999 1.244398,-1.113945 0.94656,-0.858454 1.892566,-1.720006 2.815017,-2.603213 -0.281305,-0.344738 -0.56277,-0.689406 -0.844555,-1.033788 z m -5.419824,2.8194 c -0.252036,0.189709 -0.503338,0.380501 -0.75358,0.572415 -0.01685,0.01191 -0.03248,0.02301 -0.04735,0.03348 0.157632,-0.08536 0.321472,-0.160394 0.478424,-0.246601 0.154333,-0.07772 0.30909,-0.154644 0.464046,-0.231276 -0.04729,-0.04263 -0.09436,-0.08529 -0.141544,-0.128016 z" /></clipPath><radialGradient
       gradientUnits="userSpaceOnUse"
       cx="350"
       cy="216.5"
       r="250"
       id="gradient-0"><stop
         offset="0"
         style="stop-color:#000000;stop-opacity:0;"
         id="stop1-4" /><stop
         offset="1"
         style="stop-color: #758d29"
         id="stop2-8" /></radialGradient><filter
       id="black-and-white-filter-0"
       bx:preset="black-and-white 1 -1"
       color-interpolation-filters="sRGB"
       x="-0.023569274"
       y="-0.031425406"
       width="1.0471385"
       height="1.0471385"><feColorMatrix
         type="saturate"
         values="0"
         id="feColorMatrix2" /><feComponentTransfer
         id="feComponentTransfer2"><feFuncR
           type="discrete"
           tableValues="0 0 0 0 0 0 0 0 0 0 0 0 0 0 0 0 0 0 0 0 0 0 0 0 0 0 0 0 0 0 0 0 0 0 0 0 0 0 0 0 0 0 0 0 0 0 0 0 0 0 0 0 0 0 0 0 0 0 0 0 0 0 0 0 0 0 0 0 0 0 0 0 0 0 0 0 0 0 0 0 0 0 0 0 0 0 0 0 0 0 0 0 0 0 0 0 0 0 0 0 0 0 0 0 0 0 0 0 0 0 0 0 0 0 0 0 0 0 0 0 0 0 0 0 0 0 0 0 0 0 0 0 0 0 0 0 0 0 0 0 0 0 0 0 0 0 0 0 0 0 0 0 0 0 0 0 0 0 0 0 0 0 0 0 0 0 0 0 0 0 0 0 0 0 0 0 0 0 0 0 0 0 0 0 0 0 0 0 0 0 0 0 0 0 0 0 0 0 0 0 0 0 0 0 0 0 0 0 0 0 0 0 0 0 0 0 0 0 0 0 0 0 0 0 0 0 0 0 0 0 0 0 0 0 0 0 0 0 0 0 0 0 0 0 0 0 0 0 0 0 1 1 1 1 1 "
           id="feFuncR2" /><feFuncG
           type="discrete"
           tableValues="0 0 0 0 0 0 0 0 0 0 0 0 0 0 0 0 0 0 0 0 0 0 0 0 0 0 0 0 0 0 0 0 0 0 0 0 0 0 0 0 0 0 0 0 0 0 0 0 0 0 0 0 0 0 0 0 0 0 0 0 0 0 0 0 0 0 0 0 0 0 0 0 0 0 0 0 0 0 0 0 0 0 0 0 0 0 0 0 0 0 0 0 0 0 0 0 0 0 0 0 0 0 0 0 0 0 0 0 0 0 0 0 0 0 0 0 0 0 0 0 0 0 0 0 0 0 0 0 0 0 0 0 0 0 0 0 0 0 0 0 0 0 0 0 0 0 0 0 0 0 0 0 0 0 0 0 0 0 0 0 0 0 0 0 0 0 0 0 0 0 0 0 0 0 0 0 0 0 0 0 0 0 0 0 0 0 0 0 0 0 0 0 0 0 0 0 0 0 0 0 0 0 0 0 0 0 0 0 0 0 0 0 0 0 0 0 0 0 0 0 0 0 0 0 0 0 0 0 0 0 0 0 0 0 0 0 0 0 0 0 0 0 0 0 0 0 0 0 0 0 1 1 1 1 1 "
           id="feFuncG2" /><feFuncB
           type="discrete"
           tableValues="0 0 0 0 0 0 0 0 0 0 0 0 0 0 0 0 0 0 0 0 0 0 0 0 0 0 0 0 0 0 0 0 0 0 0 0 0 0 0 0 0 0 0 0 0 0 0 0 0 0 0 0 0 0 0 0 0 0 0 0 0 0 0 0 0 0 0 0 0 0 0 0 0 0 0 0 0 0 0 0 0 0 0 0 0 0 0 0 0 0 0 0 0 0 0 0 0 0 0 0 0 0 0 0 0 0 0 0 0 0 0 0 0 0 0 0 0 0 0 0 0 0 0 0 0 0 0 0 0 0 0 0 0 0 0 0 0 0 0 0 0 0 0 0 0 0 0 0 0 0 0 0 0 0 0 0 0 0 0 0 0 0 0 0 0 0 0 0 0 0 0 0 0 0 0 0 0 0 0 0 0 0 0 0 0 0 0 0 0 0 0 0 0 0 0 0 0 0 0 0 0 0 0 0 0 0 0 0 0 0 0 0 0 0 0 0 0 0 0 0 0 0 0 0 0 0 0 0 0 0 0 0 0 0 0 0 0 0 0 0 0 0 0 0 0 0 0 0 0 0 1 1 1 1 1 "
           id="feFuncB2" /></feComponentTransfer></filter><rect
       id="SVGID_1_"
       x="147"
       y="16.3"
       width="587"
       height="817.9" /><linearGradient
       inkscape:collect="always"
       xlink:href="#swatch2152"
       id="linearGradient1"
       gradientUnits="userSpaceOnUse"
       x1="87.838745"
       y1="50.107613"
       x2="104.99991"
       y2="50.107613"
       gradientTransform="translate(-40.050825,-30.266677)" /><linearGradient
       inkscape:collect="always"
       xlink:href="#swatch2152"
       id="linearGradient2"
       gradientUnits="userSpaceOnUse"
       x1="87.838745"
       y1="50.107613"
       x2="104.99991"
       y2="50.107613" /></defs><g
     id="g2182-1-21"
     transform="matrix(1.2327546,0,0,1.2327546,-11.041436,33.124311)"
     style="display:inline"><g
       id="g2152-5-6"><path
         style="opacity:1;fill:#cd0000;fill-opacity:1;fill-rule:nonzero;stroke:#ff0808;stroke-width:0;stroke-miterlimit:4;stroke-dasharray:none;stroke-opacity:1"
         d="M 104.94441,10.065687 122.16126,65.31802 105,89.999997 Z"
         id="path2141-2-8"
         sodipodi:nodetypes="cccc" /><path
         style="opacity:1;fill:#cd0000;fill-opacity:1;fill-rule:nonzero;stroke:url(#linearGradient2);stroke-width:0;stroke-linejoin:miter;stroke-miterlimit:6;stroke-dasharray:none;stroke-dashoffset:0;stroke-opacity:1;paint-order:markers fill stroke"
         d="m 104.94441,10.065687 0.0555,80.083849 L 87.838742,65.31802 Z"
         id="path2142-7-57" /><path
         style="opacity:1;fill:#cd0000;fill-opacity:1;fill-rule:nonzero;stroke:#ff0808;stroke-width:0;stroke-miterlimit:4;stroke-dasharray:none;stroke-opacity:1"
         d="M 122.16126,65.31802 177.5,65.385071 105,89.999997 Z"
         id="path2143-6-6"
         sodipodi:nodetypes="cccc" /><path
         style="opacity:1;fill:#cd0000;fill-opacity:1;fill-rule:nonzero;stroke:#ff0808;stroke-width:0;stroke-miterlimit:4;stroke-dasharray:none;stroke-opacity:1"
         d="M 32.500001,65.385068 87.838742,65.31802 104.99991,90.149536 Z"
         id="path2144-1-1" /><path
         style="opacity:1;fill:#cd0000;fill-opacity:1;fill-rule:nonzero;stroke:#ff0808;stroke-width:0;stroke-miterlimit:4;stroke-dasharray:none;stroke-opacity:1"
         d="M 32.500001,65.385068 104.99988,90.149536 77.232501,99.640534 Z"
         id="path2145-4-8" /><path
         style="opacity:1;fill:#cd0000;fill-opacity:1;fill-rule:nonzero;stroke:#ff0808;stroke-width:0;stroke-miterlimit:4;stroke-dasharray:none;stroke-opacity:1"
         d="M 77.232501,99.640534 60.192533,154.99999 104.99991,90.149536 Z"
         id="path2146-2-9" /><path
         style="opacity:1;fill:#cd0000;fill-opacity:1;fill-rule:nonzero;stroke:#ff0808;stroke-width:0;stroke-miterlimit:4;stroke-dasharray:none;stroke-opacity:1"
         d="M 60.192533,154.99999 105,120.85302 104.99988,90.149536 Z"
         id="path2147-3-2" /><path
         style="opacity:1;fill:#cd0000;fill-opacity:1;fill-rule:nonzero;stroke:#ff0808;stroke-width:0;stroke-miterlimit:4;stroke-dasharray:none;stroke-opacity:1"
         d="m 105,89.999997 v 30.853023 l 44.80746,34.14697 z"
         id="path2148-2-7"
         sodipodi:nodetypes="cccc" /><path
         style="opacity:1;fill:#cd0000;fill-opacity:1;fill-rule:nonzero;stroke:#ff0808;stroke-width:0;stroke-miterlimit:4;stroke-dasharray:none;stroke-opacity:1"
         d="M 149.80746,154.99999 132.7675,99.640537 105,89.999997 Z"
         id="path2149-2-9"
         sodipodi:nodetypes="cccc" /><path
         style="opacity:1;fill:#cd0000;fill-opacity:1;fill-rule:nonzero;stroke:#ff0808;stroke-width:0;stroke-miterlimit:4;stroke-dasharray:none;stroke-opacity:1"
         d="M 177.5,65.385071 132.7675,99.640537 105,89.999997 Z"
         id="path2150-1-5"
         sodipodi:nodetypes="cccc" /></g></g><g
     inkscape:groupmode="layer"
     id="layer2"
     inkscape:label="Vrstva 2"
     style="display:inline"><g
       id="g2182-1-2"
       transform="matrix(1.553293,0,0,-1.553293,16.796074,113.04399)"
       style="display:inline;fill:#ff2121;fill-opacity:0.541667"><g
         id="g2152-5-4"
         style="display:inline;fill:#ff2121;fill-opacity:0.541667"><path
           style="opacity:1;fill:#ff2121;fill-opacity:0.541667;fill-rule:nonzero;stroke:#ff0808;stroke-width:0;stroke-miterlimit:4;stroke-dasharray:none;stroke-opacity:1"
           d="M 64.893585,-20.20099 82.110435,35.051343 64.949175,59.73332 Z"
           id="path2141-2-5"
           sodipodi:nodetypes="cccc" /><path
           style="opacity:1;fill:#ff2121;fill-opacity:0.541667;fill-rule:nonzero;stroke:url(#linearGradient1);stroke-width:0;stroke-linejoin:miter;stroke-miterlimit:6;stroke-dasharray:none;stroke-dashoffset:0;stroke-opacity:1;paint-order:markers fill stroke"
           d="m 64.893585,-20.20099 0.0555,80.083849 -17.161168,-24.831516 z"
           id="path2142-7-5" /><path
           style="opacity:1;fill:#ff2121;fill-opacity:0.541667;fill-rule:nonzero;stroke:#ff0808;stroke-width:0;stroke-miterlimit:4;stroke-dasharray:none;stroke-opacity:1"
           d="m 9.5548442,-20.33509 55.3387408,0.06705 -72.5,24.6149267 z"
           id="path2143-6-1"
           sodipodi:nodetypes="cccc" /><path
           style="opacity:1;fill:#ff2121;fill-opacity:0.541667;fill-rule:nonzero;stroke:#ff0808;stroke-width:0;stroke-miterlimit:4;stroke-dasharray:none;stroke-opacity:1"
           d="m 64.893585,-20.20099 55.338735,-0.06705 17.16117,24.8315157 z"
           id="path2144-1-7" /><path
           style="opacity:1;fill:#ff2121;fill-opacity:0.541667;fill-rule:nonzero;stroke:#ff0808;stroke-width:0;stroke-miterlimit:4;stroke-dasharray:none;stroke-opacity:1"
           d="M 64.893585,-20.20099 137.39346,4.5634777 109.62608,14.054476 Z"
           id="path2145-4-1" /><path
           style="opacity:1;fill:#ff2121;fill-opacity:0.541667;fill-rule:nonzero;stroke:#ff0808;stroke-width:0;stroke-miterlimit:4;stroke-dasharray:none;stroke-opacity:1"
           d="M 81.989051,-75.560446 64.949085,-20.20099 109.75646,-85.051444 Z"
           id="path2146-2-1" /><path
           style="display:inline;opacity:1;fill:#ff2121;fill-opacity:0.541667;fill-rule:nonzero;stroke:#ff0808;stroke-width:0;stroke-miterlimit:4;stroke-dasharray:none;stroke-opacity:1"
           d="m 64.949085,-20.20099 44.807465,-34.14697 -1.2e-4,-30.703484 z"
           id="path2147-3-5" /><path
           style="display:inline;opacity:1;fill:#ff2121;fill-opacity:0.541667;fill-rule:nonzero;stroke:#ff0808;stroke-width:0;stroke-miterlimit:4;stroke-dasharray:none;stroke-opacity:1"
           d="m 20.141625,-85.200983 v 30.853023 l 44.80746,34.14697 z"
           id="path2148-2-2"
           sodipodi:nodetypes="cccc" /><path
           style="display:inline;opacity:1;fill:#ff2121;fill-opacity:0.541667;fill-rule:nonzero;stroke:#ff0808;stroke-width:0;stroke-miterlimit:4;stroke-dasharray:none;stroke-opacity:1"
           d="m 64.949085,-20.20099 -17.03996,-55.359453 -27.7675,-9.64054 z"
           id="path2149-2-7"
           sodipodi:nodetypes="cccc" /><path
           style="display:inline;opacity:1;fill:#ff2121;fill-opacity:0.541667;fill-rule:nonzero;stroke:#ff0808;stroke-width:0;stroke-miterlimit:4;stroke-dasharray:none;stroke-opacity:1"
           d="M 64.893585,-20.26804 20.161085,13.987426 -7.6064152,4.3468862 Z"
           id="path2150-1-6"
           sodipodi:nodetypes="cccc" /></g></g></g><g
     inkscape:label="Vrstva 1"
     inkscape:groupmode="layer"
     id="layer1"
     transform="translate(62.863711,3.6548669)"><g
       id="g1"
       transform="translate(-62.877045,17.799559)"
       style="display:inline"><path
         style="display:inline;mix-blend-mode:darken;fill-opacity:0.9;stroke:#000000;stroke-width:13.6075;stroke-dasharray:none;stroke-opacity:1;paint-order:fill;filter:url(#black-and-white-filter-0)"
         d="M 600,433 H 100 L 350.001,0 Z M 102.088,431.883 H 597.913 L 350.001,2.498 Z"
         transform="matrix(0.29395571,0,0,0.29395571,14.417348,51.839642)"
         id="path2" /><path
         d="m 72.727287,12.74514 h 6.042023 l 4.118195,25.550842 h 0.390777 L 82.526787,12.74514 h 6.553039 V 61.742638 H 83.278282 L 78.76931,34.568565 h -0.240479 l 0.721436,27.174073 h -6.52298 z"
         id="text1"
         style="font-size:61.5625px;font-family:'Gill Sans MT Ext Condensed Bold';-inkscape-font-specification:'Gill Sans MT Ext Condensed Bold, ';fill-rule:evenodd;stroke:#000000;stroke-width:0;stroke-linecap:round;stroke-miterlimit:10;stroke-opacity:0;paint-order:markers fill stroke"
         transform="scale(1.4542349,0.68764682)"
         aria-label="N" /><path
         d="m 31.514283,183.47908 5.67778,5.2704 -22.92218,24.69394 -5.6777795,-5.2704 z"
         id="text2"
         style="font-size:55.2533px;font-family:'Gill Sans MT Ext Condensed Bold';-inkscape-font-specification:'Gill Sans MT Ext Condensed Bold, ';fill-rule:evenodd;stroke:#000000;stroke-width:5.22079;stroke-linecap:round;stroke-miterlimit:10;stroke-opacity:0;paint-order:markers fill stroke"
         aria-label="I" /><path
         d="m 227.85627,203.25815 q -0.99767,2.00143 -3.18485,4.16048 -6.02371,5.94626 -12.85434,6.27006 -6.79477,0.2884 -12.55978,-5.55169 -6.44751,-6.53149 -4.43726,-15.10916 1.32198,-5.5456 5.62464,-9.79293 1.97204,-1.94669 4.32254,-3.36656 l 3.00593,3.04509 q -1.48047,0.93862 -2.59198,2.03583 -2.18719,2.15907 -2.62534,4.79903 -0.73647,4.56098 4.52028,9.8862 5.54718,5.61944 9.1338,5.73864 3.60794,0.0691 6.54809,-2.83324 1.11152,-1.09723 1.9326,-2.48866 z"
         id="text3"
         style="font-size:66.0914px;font-family:'Gill Sans MT Ext Condensed Bold';-inkscape-font-specification:'Gill Sans MT Ext Condensed Bold, ';white-space:pre;inline-size:17.2072;fill-rule:evenodd;stroke:#000000;stroke-width:6.24486;stroke-linecap:round;stroke-miterlimit:10;stroke-opacity:0;paint-order:markers fill stroke"
         aria-label="C" /><path
         d="m -98.793757,99.23026 -2.222083,7.54474 q 0.20671,0.0344 0.41341,0.0344 0.91295,0 2.118731,-0.84404 1.515838,-1.05076 2.342659,-2.23931 0.844047,-1.20578 0.844047,-2.34266 0,-2.359885 -2.480463,-2.359885 -0.689018,0 -1.016301,0.206705 z m -2.583813,8.85388 q -0.0689,0.22393 -0.13781,0.49953 -0.0689,0.27561 -0.1378,0.51677 -0.8096,2.73884 -1.49861,4.44416 -0.6718,1.70532 -1.42971,2.89387 -0.43064,0.72347 -1.24024,1.53307 2.08428,0.63734 2.96278,0.82682 0.89572,0.18948 1.77422,0.18948 1.0163,0 1.791445,-0.29283 0.79237,-0.31006 1.481388,-0.98185 1.016301,-0.99908 1.653642,-2.37711 0.637341,-1.37804 0.637341,-2.66995 0,-1.41248 -0.98185,-2.39433 -0.482312,-0.48232 -1.085202,-0.7407 -0.585665,-0.25838 -1.636417,-0.43063 -0.964627,-0.18948 -1.343587,-0.36174 -0.37896,-0.17225 -0.80959,-0.65456 z m -7.51029,2.25653 2.01537,-6.20116 q 0.58567,-1.67087 1.41249,-3.25561 -0.0861,0.0172 -0.39619,0.18948 -1.18855,0.48231 -1.68809,0.48231 -0.70624,0 -0.70624,-0.53398 0,-0.56844 0.55121,-1.636421 0.55122,-1.067977 1.10243,-1.601966 1.25746,-1.154104 3.82405,-1.825897 2.58381,-0.671792 5.770519,-0.671792 1.929249,0 3.479538,0.327284 1.567515,0.327283 2.669943,0.98185 1.102428,0.637341 1.670868,1.550289 0.585665,0.912948 0.585665,2.032603 0,1.56751 -0.654567,2.79052 -0.654567,1.22301 -2.067053,2.29098 -1.567515,1.17133 -2.962775,1.55029 -0.155029,0.0517 -0.533989,0.10336 v 0.0861 q 6.046129,0.77515 6.046129,4.99538 0,0.84405 -0.292832,1.75699 -0.275607,0.91295 -0.826821,1.79145 -0.533989,0.8785 -1.291908,1.60197 -1.636417,1.60196 -3.892949,2.98 -2.239307,1.37803 -4.513065,2.22208 -2.273763,0.84405 -3.892953,0.84405 -1.36081,0 -2.61826,-0.31006 -1.24023,-0.31006 -1.98093,-0.82682 -0.74069,-0.49954 -0.74069,-1.08521 0,-0.53399 0.29283,-0.99907 0.31006,-0.46509 1.11965,-1.15411 l -0.0689,-0.0689 q -0.46509,0.17226 -0.91295,0.17226 -0.9474,0 -1.53306,-0.55122 -0.58567,-0.55121 -0.58567,-1.49861 0,-0.53399 0.48232,-2.48046 0.48231,-1.9637 1.13688,-4.04798 z m 32.314919,3.32451 -0.292833,0.24115 q -0.08613,0.0517 -1.154104,0.8785 -2.067053,1.61919 -3.410637,2.56659 -1.343584,0.93018 -2.239307,1.37804 -0.895723,0.43063 -1.446937,0.43063 -0.930173,0 -1.498613,-0.75792 -0.551214,-0.77514 -0.551214,-1.99815 0,-2.06705 0.620116,-4.8059 0.620116,-2.75607 1.670867,-5.42601 1.154105,-2.96277 2.824972,-3.61734 0.585665,-0.25838 1.378035,-0.25838 1.085203,0 1.756995,0.67179 0.671792,0.67179 0.671792,1.77422 0,0.75792 -0.258381,1.60197 -0.258382,0.84404 -0.826821,2.01537 l -0.206706,0.49954 q -1.481387,3.13503 -1.481387,3.80682 0,0.39619 0.275607,0.39619 0.258381,0 0.671792,-0.36174 0.41341,-0.36173 1.274682,-1.32636 0.533989,-0.65456 1.515839,-1.63641 l 0.637341,-0.63734 0.551214,-0.58567 q 1.739769,-1.72254 2.842198,-2.48046 1.102428,-0.77515 1.825896,-0.77515 1.378035,0 1.378035,2.39434 0,0.49954 -0.120578,1.77422 -0.206705,2.48046 -0.206705,4.20301 0.01722,0.34451 0.01722,0.63734 0.01723,0.2756 0.01723,0.72347 0.120578,1.1541 0.172254,1.77422 0.120578,0.98185 0.120578,0.98185 0,0.51676 -0.930174,0.91294 -0.930173,0.39619 -2.153179,0.39619 -1.119654,0 -1.92925,-0.43064 -0.79237,-0.44786 -1.20578,-1.30913 -0.413411,-0.86127 -0.413411,-2.1015 0,-0.15503 0.03445,-0.53399 0.03445,-0.39619 0.0689,-1.0163 z m 26.871687,-0.84405 -4.702545,4.82312 q -0.912948,0.91295 -1.481388,1.25746 -0.551214,0.32728 -1.223006,0.32728 -1.050752,0 -1.77422,-0.77514 -0.706243,-0.79237 -0.706243,-1.92925 0,-0.70624 0.206705,-1.53306 0.223931,-0.84405 0.861272,-2.49769 0.120578,-0.34451 0.223931,-0.58567 0.120578,-0.25838 0.18948,-0.43063 l -0.0689,-0.0689 q -1.670868,1.75699 -3.272833,3.70346 -1.343585,1.60197 -2.135955,2.39434 -0.79237,0.79237 -1.429711,1.18856 -0.637342,0.39618 -1.136879,0.39618 -1.119654,0 -1.77422,-0.8785 -0.654567,-0.87849 -0.654567,-2.39433 0,-1.91203 1.653642,-6.18394 1.481388,-3.78959 2.290983,-5.0815 1.188556,-1.79145 2.72162,-1.79145 0.930173,0 1.533064,0.44787 0.620116,0.43063 0.620116,1.13688 0,1.2919 -0.98185,3.94462 -0.37896,0.98185 -0.775145,2.22208 l 0.0689,0.0689 q 0.637341,-0.70624 2.049827,-2.42878 2.428787,-2.99723 3.669018,-4.08243 1.601966,-1.48139 2.928325,-1.48139 0.585665,0 1.119653,0.39619 0.533989,0.39618 0.844047,1.06797 0.327283,0.65457 0.327283,1.37804 0,0.74069 -1.067977,3.78959 -0.223931,0.63735 -0.344509,0.99908 -0.120578,0.36173 -0.223931,0.62012 l 0.08613,0.0689 q 0.241156,-0.24116 0.430636,-0.43064 0.189479,-0.18948 0.41341,-0.39618 0.241156,-0.22393 0.447862,-0.41341 0.465086,-0.44787 2.342659,-2.35989 1.240232,-1.37803 1.946475,-1.87757 0.706243,-0.51677 1.360809,-0.51677 1.067978,0 1.619192,0.7407 0.568439,0.72347 0.568439,2.15318 0,0.8785 -0.275607,2.77329 -0.241156,2.13596 -0.344509,3.35896 -0.08613,1.20579 -0.08613,1.6881 0,0.36173 0.03445,0.93017 0.05168,0.55122 0.155029,1.18856 0.103353,0.63734 0.275607,1.41248 0.206705,0.9474 0.275607,1.48139 -0.137803,0.62012 -0.912948,1.05075 -0.75792,0.43064 -1.653642,0.43064 -1.412486,0 -2.652718,-1.27468 -0.551214,-0.58567 -0.861272,-1.18856 -0.292832,-0.58566 -0.430636,-1.39526 -0.120578,-0.82682 -0.120578,-2.17041 0,-0.87849 0.206705,-3.63456 l -0.0689,-0.0689 z m 18.31064,-1.10243 q -0.430636,0.13781 -0.60289,0.13781 -0.60289,0 -0.999075,-0.44786 -0.37896,-0.44787 -0.37896,-1.13688 0,-1.36081 0.964624,-3.51399 0.964625,-2.15318 2.032602,-3.18671 0.775145,-0.77514 1.756995,-0.77514 0.757919,0 1.309133,0.51676 0.551214,0.49954 0.844047,1.46416 0.292832,0.9474 0.292832,2.22208 0,3.20393 -1.343584,6.01168 -1.343584,2.80775 -3.582891,4.47861 -2.239307,1.67087 -4.805898,1.67087 -1.670867,0 -2.911099,-0.79237 -1.240231,-0.79237 -1.929249,-2.27376 -0.671792,-1.49861 -0.671792,-3.46231 0,-1.86035 0.60289,-4.16856 0.602891,-2.32543 1.688093,-4.71977 1.085203,-2.41156 2.583816,-4.685315 1.584741,-2.463237 3.634568,-3.841272 1.412486,-0.999076 2.962775,-0.999076 1.584741,0 2.53214,0.964625 0.947399,0.964624 0.947399,2.56659 0,1.136879 -0.878498,2.394338 -0.861271,1.24023 -2.18763,2.04983 -1.309134,0.80959 -2.566591,0.80959 -0.60289,0 -0.60289,-0.31006 0,-0.24115 0.499538,-0.87849 0.826821,-1.03353 1.39526,-2.377115 0.56844,-1.36081 0.56844,-2.359885 0,-0.912948 -0.275607,-0.912948 -0.344509,0 -1.067977,1.136879 -0.723469,1.136879 -1.291908,2.601041 -1.343585,3.513988 -2.067053,6.683468 -0.723468,3.15226 -0.723468,5.37434 0,1.67087 0.533988,2.82497 0.551214,1.13688 1.326359,1.13688 0.98185,0 1.636417,-1.10243 0.654566,-1.11965 0.775144,-3.10058 z m 15.950752,-5.54659 q 0.689018,-1.94647 1.154105,-4.0652 0.465086,-2.135956 0.465086,-3.272835 0,-0.310058 -0.172254,-0.310058 -0.275607,0 -0.964624,1.240231 -0.689018,1.223002 -1.154105,2.497692 -0.999075,2.80774 -1.550289,4.66809 -0.533989,1.84312 -0.740694,3.10058 -0.206705,1.25746 -0.206705,2.56659 0,1.11965 0.241156,1.63642 0.258381,0.51676 0.809595,0.51676 0.947399,0 2.118729,-0.82682 1.17133,-0.84405 2.118729,-2.20486 0.740694,-1.0163 1.154105,-1.0163 0.533988,0 0.533988,0.84405 0,1.84312 -1.154104,3.60012 -1.154105,1.75699 -2.980001,2.85942 -1.808671,1.0852 -3.703469,1.0852 -2.325435,0 -3.789597,-1.46416 -1.464162,-1.46416 -1.464162,-3.82405 0,-1.92925 0.826821,-4.51306 0.826821,-2.60105 2.204856,-5.21931 1.395261,-2.63549 3.048903,-4.771448 1.653642,-2.135955 3.272833,-3.272834 0.999075,-0.740694 2.222082,-0.740694 0.930173,0 1.688093,0.585665 0.757919,0.56844 1.171329,1.601966 0.413411,1.033526 0.413411,2.290983 0,2.704392 -1.067977,5.288212 -1.050752,2.58381 -2.94555,4.47861 -0.895723,0.91295 -1.722544,1.42971 -0.826821,0.51677 -1.446937,0.51677 -0.60289,0 -0.60289,-0.46509 0,-0.25838 0.447861,-0.98185 0.60289,-0.9474 1.412486,-2.85942 0.0689,-0.18948 0.155029,-0.39619 0.08613,-0.22393 0.206705,-0.60289 z m 12.7985028,7.52752 q 0.7923702,-0.53399 1.2057807,-1.06798 0.91294824,-1.11965 1.41248596,-2.56659 0.39618509,-0.9474 0.6201158,-2.11873 0.2239307,-1.17133 0.2239307,-2.18763 0,-0.9474 -0.39618509,-0.9474 -0.55121404,0 -1.68809297,2.42879 -0.6717921,1.46416 -1.1024281,2.92832 -0.4134105,1.44694 -0.4134105,2.49769 0,0.36174 0.1378035,1.03353 z m 0.034451,0.55121 q 0.1894798,1.03353 1.3435842,1.03353 1.29190788,0 3.3589605,-1.51584 1.2057807,-0.8785 1.6191913,-0.8785 0.5167631,0 0.9646245,0.27561 0.4478614,0.27561 0.4478614,0.56844 0,0.31006 -0.4995377,0.80959 -0.9129482,0.91295 -2.1015035,1.79145 -1.1885553,0.86127 -2.29098336,1.44694 -1.10242807,0.56844 -2.20485614,0.91295 -1.1024281,0.32728 -1.9637,0.32728 -2.1531799,0 -3.4450878,-1.22301 -1.2919079,-1.24023 -1.2919079,-3.29006 0,-1.56751 0.6717921,-3.53121 0.6890176,-1.98093 1.843122,-3.70347 1.3608096,-2.01538 3.3417351,-3.35896 2.44601229,-1.61919 4.6853193,-1.61919 1.6191913,0 2.5321395,1.03352 0.9301737,1.01631 0.9301737,2.80775 0,1.39526 -0.7406939,2.9111 -0.7234684,1.51584 -2.1531798,2.9111 -1.1713298,1.17133 -2.30820879,1.8259 -1.11965352,0.65456 -1.96370001,0.65456 -0.3789597,0 -0.7751447,-0.18948 z"
         id="text5"
         style="font-size:35.2777px;font-family:Forte;-inkscape-font-specification:Forte;fill-rule:evenodd;stroke:#000000;stroke-width:0;stroke-linecap:round;stroke-linejoin:round;stroke-miterlimit:0;paint-order:markers fill stroke"
         transform="rotate(-58.498841)"
         aria-label="Bumble" /><path
         d="m 155.51355,-115.64477 -2.22208,7.54474 q 0.2067,0.0345 0.41341,0.0345 0.91294,0 2.11873,-0.84404 1.51583,-1.05076 2.34265,-2.23931 0.84405,-1.20578 0.84405,-2.34266 0,-2.35989 -2.48046,-2.35989 -0.68902,0 -1.0163,0.20671 z m -2.58382,8.85387 q -0.0689,0.22394 -0.1378,0.49954 -0.0689,0.27561 -0.13781,0.51677 -0.80959,2.73884 -1.49861,4.44416 -0.67179,1.705317 -1.42971,2.893873 -0.43064,0.723468 -1.24023,1.533064 2.08428,0.637341 2.96277,0.826821 0.89573,0.18948 1.77422,0.18948 1.0163,0 1.79145,-0.292833 0.79237,-0.310058 1.48139,-0.98185 1.0163,-0.999075 1.65364,-2.37711 0.63734,-1.378035 0.63734,-2.669945 0,-1.41248 -0.98185,-2.39433 -0.48231,-0.48232 -1.0852,-0.7407 -0.58567,-0.25838 -1.63642,-0.43063 -0.96462,-0.18948 -1.34358,-0.36174 -0.37896,-0.17225 -0.8096,-0.65457 z m -7.51029,2.25654 2.01538,-6.20116 q 0.58566,-1.67087 1.41248,-3.25561 -0.0861,0.0172 -0.39618,0.18948 -1.18856,0.48231 -1.6881,0.48231 -0.70624,0 -0.70624,-0.53399 0,-0.56843 0.55122,-1.63641 0.55121,-1.06798 1.10242,-1.60197 1.25746,-1.1541 3.82405,-1.82589 2.58382,-0.6718 5.77052,-0.6718 1.92925,0 3.47954,0.32729 1.56752,0.32728 2.66994,0.98185 1.10243,0.63734 1.67087,1.55029 0.58567,0.91294 0.58567,2.0326 0,1.56751 -0.65457,2.79052 -0.65457,1.22301 -2.06705,2.29098 -1.56752,1.17133 -2.96278,1.55029 -0.15503,0.0517 -0.53399,0.10335 v 0.0861 q 6.04613,0.77515 6.04613,4.99538 0,0.84405 -0.29283,1.75699 -0.27561,0.91295 -0.82682,1.79145 -0.53399,0.878497 -1.29191,1.601966 -1.63642,1.601965 -3.89295,2.98 -2.23931,1.378036 -4.51306,2.222082 -2.27376,0.844047 -3.89295,0.844047 -1.36081,0 -2.61827,-0.310058 -1.24023,-0.310058 -1.98092,-0.826821 -0.7407,-0.499538 -0.7407,-1.085203 0,-0.533989 0.29283,-0.999075 0.31006,-0.465087 1.11966,-1.154105 l -0.0689,-0.0689 q -0.46509,0.172255 -0.91295,0.172255 -0.9474,0 -1.53307,-0.551214 -0.58566,-0.551214 -0.58566,-1.498613 0,-0.533989 0.48231,-2.480461 0.48231,-1.9637 1.13688,-4.04798 z m 27.61238,3.35896 q 0.79237,-0.53399 1.20578,-1.06798 0.91295,-1.11965 1.41249,-2.56659 0.39618,-0.9474 0.62011,-2.11873 0.22393,-1.17133 0.22393,-2.18763 0,-0.9474 -0.39618,-0.9474 -0.55122,0 -1.6881,2.42879 -0.67179,1.46416 -1.10242,2.92832 -0.41342,1.44694 -0.41342,2.49769 0,0.36174 0.13781,1.03353 z m 0.0344,0.55121 q 0.18948,1.033528 1.34358,1.033528 1.29191,0 3.35896,-1.515838 1.20578,-0.8785 1.6192,-0.8785 0.51676,0 0.96462,0.27561 0.44786,0.27561 0.44786,0.56844 0,0.31006 -0.49954,0.80959 -0.91294,0.912953 -2.1015,1.79145 -1.18856,0.861272 -2.29098,1.446937 -1.10243,0.568439 -2.20486,0.912948 -1.10243,0.327283 -1.9637,0.327283 -2.15318,0 -3.44509,-1.223006 -1.29191,-1.240231 -1.29191,-3.290062 0,-1.56751 0.6718,-3.53121 0.68901,-1.98093 1.84312,-3.70347 1.36081,-2.01538 3.34173,-3.35896 2.44602,-1.61919 4.68532,-1.61919 1.61919,0 2.53214,1.03352 0.93018,1.0163 0.93018,2.80775 0,1.39526 -0.7407,2.9111 -0.72347,1.51584 -2.15318,2.9111 -1.17133,1.17133 -2.30821,1.8259 -1.11965,0.65456 -1.9637,0.65456 -0.37896,0 -0.77514,-0.18948 z m 15.02058,-0.55121 q 0.79237,-0.53399 1.20578,-1.06798 0.91295,-1.11965 1.41249,-2.56659 0.39618,-0.9474 0.62011,-2.11873 0.22393,-1.17133 0.22393,-2.18763 0,-0.9474 -0.39618,-0.9474 -0.55121,0 -1.68809,2.42879 -0.6718,1.46416 -1.10243,2.92832 -0.41341,1.44694 -0.41341,2.49769 0,0.36174 0.1378,1.03353 z m 0.0344,0.55121 q 0.18948,1.033528 1.34359,1.033528 1.2919,0 3.35896,-1.515838 1.20578,-0.8785 1.61919,-0.8785 0.51676,0 0.96462,0.27561 0.44786,0.27561 0.44786,0.56844 0,0.31006 -0.49953,0.80959 -0.91295,0.912953 -2.10151,1.79145 -1.18855,0.861272 -2.29098,1.446937 -1.10243,0.568439 -2.20486,0.912948 -1.10242,0.327283 -1.9637,0.327283 -2.15318,0 -3.44508,-1.223006 -1.29191,-1.240231 -1.29191,-3.290062 0,-1.56751 0.67179,-3.53121 0.68902,-1.98093 1.84312,-3.70347 1.36081,-2.01538 3.34174,-3.35896 2.44601,-1.61919 4.68532,-1.61919 1.61919,0 2.53214,1.03352 0.93017,1.0163 0.93017,2.80775 0,1.39526 -0.74069,2.9111 -0.72347,1.51584 -2.15318,2.9111 -1.17133,1.17133 -2.30821,1.8259 -1.11966,0.65456 -1.9637,0.65456 -0.37896,0 -0.77515,-0.18948 z"
         id="text6"
         style="font-size:35.2777px;font-family:Forte;-inkscape-font-specification:Forte;fill-rule:evenodd;stroke:#000000;stroke-width:0;stroke-linecap:round;stroke-linejoin:round;stroke-miterlimit:0;paint-order:markers fill stroke"
         transform="rotate(63.023017)"
         aria-label="Bee" /></g><path
       style="display:inline;fill:#000000;stroke-width:0.622664"
       d="m 28.810169,128.94442 c -0.59787,0.66064 -0.368516,1.52248 0.89349,3.35742 2.983069,4.33731 2.701379,3.74544 2.737304,5.75143 0.0394,2.19909 1.981567,7.30304 6.159193,16.18611 0.203992,0.43375 0.190948,0.49767 -0.159362,0.78135 -0.543329,0.43995 -0.519063,0.46399 -3.847217,-3.81256 -3.271006,-4.20313 -3.922397,-4.79381 -5.531071,-5.01555 -0.610291,-0.0842 -1.169182,-0.38693 -2.666701,-1.44483 -4.234588,-2.99146 -4.324731,-3.03454 -5.360524,-2.56261 -0.370424,0.16877 -0.419318,0.27086 -0.335347,0.70018 0.174526,0.89231 0.658424,1.30324 3.055493,2.59476 2.780175,1.49791 2.911306,1.61013 4.004435,3.42683 1.098016,1.82483 2.076224,2.83831 5.491517,5.6894 2.577169,2.15144 3.523455,3.14476 3.523455,3.6986 0,0.24575 -1.162161,0.14936 -4.283406,-0.35526 -4.365918,-0.70583 -5.03751,-0.43331 -9.083057,3.68591 -3.115185,3.17193 -3.726498,4.03101 -3.870161,5.43872 -0.140334,1.37522 -0.325246,1.67372 -1.559045,2.51673 -3.545938,2.42282 -8.9120979,9.78956 -9.1653319,12.58228 -0.313088,3.45286 1.8535169,4.50517 9.3446449,4.53861 6.001565,0.0268 7.932979,-0.68351 15.898043,-5.84664 7.301315,-4.73288 6.770045,-4.486 6.41941,-2.98296 -0.473797,2.031 -0.892891,2.85739 -1.987678,3.91936 -0.570562,0.55346 -1.301022,1.45613 -1.623264,2.00594 -0.973532,1.66109 -2.167303,2.45818 -4.126438,2.7553 -1.206664,0.183 -1.388971,0.24727 -1.725278,0.60825 -1.485574,1.59459 -0.05038,2.35421 2.593704,1.37291 4.204834,-1.56053 5.0052,-2.02408 6.995783,-4.05182 0.975153,-0.99336 2.162315,-2.05699 2.638146,-2.36364 0.475842,-0.30666 1.321622,-0.97302 1.87954,-1.48082 1.267243,-1.15342 1.088266,-1.25358 1.79279,1.00325 0.703463,2.25346 0.815528,2.01105 -1.406829,3.04298 -1.536163,0.7133 -2.281562,1.35398 -4.185294,3.59731 -1.552998,1.83004 -1.745579,2.12546 -1.745579,2.67779 0,1.20326 0.950787,0.66093 3.392223,-1.93495 3.038248,-3.23045 4.251422,-3.62894 7.749089,-2.54539 3.031289,0.93906 4.456186,0.93676 7.789416,-0.0126 3.588309,-1.02205 4.753774,-0.62257 7.67755,2.63166 1.989847,2.21478 2.907465,2.8806 3.20463,2.32532 0.453771,-0.84788 0.435827,-0.87474 -3.700599,-5.53946 -0.548042,-0.61805 -1.581528,-1.1809 -2.850741,-1.55259 -1.636918,-0.47935 -1.636295,-0.22192 -0.01122,-4.58274 0.134086,-0.35975 0.190611,-0.32494 1.166649,0.71844 0.916035,0.97925 3.807314,3.48585 6.61895,5.73827 2.747592,2.20115 7.213804,3.58337 7.834008,2.42453 0.528165,-0.98691 -0.21398,-1.65737 -2.461189,-2.22343 -2.954314,-0.74417 -6.919594,-5.29149 -7.196084,-8.25238 -0.06285,-0.67316 -0.0389,-1.07517 0.06409,-1.07517 0.172705,0 6.031093,3.57934 9.679244,5.91382 5.189116,3.32052 7.150769,3.79014 14.998183,3.59061 5.12528,-0.13031 6.502007,-0.86988 6.788607,-3.64679 0.27234,-2.63863 -4.266627,-9.40449 -8.659607,-12.90817 -1.638939,-1.30717 -2.154672,-2.05937 -2.161668,-3.15294 -0.0062,-0.97314 -0.601823,-1.87092 -2.868473,-4.32379 -4.776606,-5.16904 -5.994144,-5.63556 -11.507534,-4.40932 -3.981141,0.88544 -3.840009,0.21866 0.734738,-3.47129 3.541237,-2.85633 4.799563,-4.15972 5.715411,-5.92009 0.843224,-1.62079 1.248363,-1.9581 4.163585,-3.46647 2.592768,-1.34152 2.934923,-1.60762 2.934923,-2.28257 0,-1.27619 -1.437354,-1.45207 -2.997945,-0.36681 -3.996691,2.77941 -5.049368,3.42429 -6.152672,3.76924 -1.507034,0.47119 -1.697795,0.65367 -4.855327,4.64461 -2.964701,3.74725 -3.159278,3.95392 -3.722558,3.95392 -0.705746,0 -0.471092,-0.68658 2.555621,-7.47772 3.368731,-7.55853 3.358768,-7.5297 3.211713,-9.29296 -0.148115,-1.77606 -0.01359,-2.09454 2.166792,-5.1307 2.384712,-3.32062 2.591147,-4.58579 0.690084,-4.22915 -0.914289,0.17152 -0.960314,0.23928 -4.209723,6.19622 -0.321281,0.58897 -0.967871,1.44643 -1.436892,1.9055 -1.284164,1.25689 -1.241929,1.14017 -3.123428,8.63394 -1.6649,6.63107 -2.124383,8.23217 -2.309345,8.0472 -0.04414,-0.0441 0.03055,-0.81543 0.165921,-1.71396 2.120243,-14.06707 -7.329334,-25.53995 -18.036366,-21.89826 -6.624561,2.25316 -11.415645,11.3568 -10.404779,19.77036 0.395526,3.2921 0.39691,3.32059 0.146182,3.01465 -0.12633,-0.15414 -0.958281,-3.15665 -1.84879,-6.67224 -2.102349,-8.29977 -2.218429,-8.59781 -3.792962,-9.73791 -0.548565,-0.39721 -0.945824,-1.02642 -2.370895,-3.7551 -2.161443,-4.13873 -2.669781,-4.67347 -3.534441,-3.71805 z m 28.475611,2.44618 c 2.633869,0.65558 6.12984,3.42721 4.952928,3.9267 -2.573253,1.09215 -10.804843,1.23812 -14.352003,0.25451 -1.637429,-0.45405 -1.653603,-0.52974 -0.369501,-1.72942 2.672986,-2.49725 6.115063,-3.36116 9.768576,-2.45179 z m -11.646184,12.40255 c 1.059386,0.26817 2.370958,0.64285 2.914623,0.83264 4.468917,1.56006 6.722486,1.50482 13.286183,-0.32569 5.292576,-1.47601 5.150571,-1.54192 5.310258,2.46514 0.05312,1.33503 -0.0037,2.69673 -0.159562,3.87155 -0.611699,4.58794 -0.670768,4.64094 -4.608652,4.13371 -5.838524,-0.75204 -10.211886,-0.75687 -14.651961,-0.0162 -5.112751,0.85286 -6.022351,-0.35819 -5.814769,-7.74191 0.111355,-3.96156 0.26538,-4.09469 3.72388,-3.21923 z m -9.194248,16.6489 c 3.035454,0.63547 6.361576,1.33332 7.391383,1.55078 2.775025,0.586 2.704597,0.75338 -0.31552,0.74986 -8.112542,-0.009 -12.585512,-0.63585 -14.558912,-2.03887 -0.794467,-0.56487 -0.794467,-0.56487 -0.240016,-0.85158 1.435708,-0.74244 1.315488,-0.75161 7.723065,0.58981 z m 43.951243,-0.73446 c 1.845423,1.29259 -5.773607,3.10094 -13.118142,3.11355 -3.703753,0.005 -4.419624,-0.0506 -3.988436,-0.31703 0.2261,-0.13975 12.022719,-2.67661 13.682968,-2.94255 1.143069,-0.18308 3.071142,-0.10076 3.42361,0.14603 z m 3.619309,2.61443 c 1.598025,1.62417 1.482456,1.76429 -2.182903,2.64648 -5.956549,1.43368 -4.653942,1.42604 -15.690959,0.092 -2.287286,-0.27646 -4.196293,-0.50266 -4.242231,-0.50266 -0.04601,0 -0.08355,-0.0696 -0.08355,-0.15465 0,-0.25246 1.085884,-0.33728 7.578342,-0.59194 7.595263,-0.29789 7.931595,-0.35595 11.120388,-1.91922 2.001108,-0.98101 2.127912,-0.96544 3.50086,0.42997 z m -55.689018,-0.46573 c 1.396179,0.62859 3.101419,1.20074 4.410472,1.4798 1.226679,0.2615 1.975333,0.30771 9.285701,0.57315 8.14641,0.2958 7.956746,0.38731 -3.436004,1.65787 -8.12374,0.90598 -15.25881,-0.40486 -14.116189,-2.59342 0.795602,-1.52389 2.108272,-1.90428 3.85602,-1.1174 z m 20.373581,4.31913 c 0.14501,0.23462 -0.503587,0.41356 -18.886884,5.21092 -4.920644,1.2841 -5.063334,1.27349 -6.229049,-0.46332 -1.187125,-1.76873 -1.231043,-1.74382 4.26833,-2.42029 9.507512,-1.16948 16.186628,-1.9808 17.571173,-2.13441 1.30944,-0.14527 1.788175,-0.19477 2.914523,-0.30136 0.153227,-0.0145 0.316081,0.0343 0.361907,0.10836 z m 18.489377,0.60876 c 20.401326,2.36816 20.421751,2.37322 18.121284,4.49371 -1.561876,1.43968 -0.27043,1.66406 -18.847842,-3.27453 -3.379156,-0.8983 -6.177786,-1.63328 -6.219185,-1.63328 -0.0414,0 -0.07519,-0.0742 -0.07519,-0.16475 0,-0.23652 -0.01122,-0.23742 7.020985,0.57885 z m -0.01933,2.64148 c 15.197471,3.93233 15.681756,4.08933 14.538873,4.71365 -0.496143,0.27103 -4.571181,0.26398 -6.30156,-0.0112 -2.339472,-0.37164 -14.909559,-5.54126 -14.909559,-6.13176 0,-0.24557 1.163146,0.004 6.672246,1.429 z m -18.869365,-1.17077 c -0.25276,0.24868 -7.101888,3.29337 -10.795728,4.79912 -2.638644,1.07559 -3.49122,1.22108 -7.165458,1.22265 -3.104062,8.5e-4 -4.170967,-0.22459 -3.061167,-0.64825 3.148043,-1.20172 15.925962,-4.65253 19.792644,-5.34519 0.724887,-0.12985 1.352386,-0.24278 1.394458,-0.25088 0.04215,-0.009 -0.03205,0.092 -0.164749,0.22255 z m 20.763944,4.99163 c 6.6705,2.83349 7.43923,3.20283 8.280783,3.97856 1.088677,1.0035 2.364498,3.64269 1.760941,3.64269 -0.749851,0 -14.681064,-8.67277 -15.477066,-9.63512 -0.35965,-0.43481 -0.121454,-0.34656 5.435342,2.01387 z m -24.629554,-1.34059 c -1.410244,1.18947 -13.253824,8.81765 -14.333809,9.23208 -0.637525,0.24466 0.104994,-1.9931 1.063912,-3.20616 0.924638,-1.16975 1.773548,-1.63637 7.257297,-3.98912 5.995991,-2.57252 7.085241,-2.94151 6.0126,-2.0368 z m 6.623626,2.0404 c 3.068162,0.76612 4.246322,0.82947 5.903977,0.31749 5.693352,-1.7585 7.598966,-1.23285 5.705946,1.57396 -3.935016,5.83452 -13.461157,5.57613 -16.407017,-0.44499 -1.174655,-2.40091 -0.200986,-2.6945 4.797094,-1.44646 z m -26.109828,6.35636 c 2.524273,0.19454 3.301108,1.77805 1.533633,3.12616 -1.973188,1.50503 -9.064789,2.04804 -10.321432,0.79035 -1.710876,-1.71232 -0.441289,-3.48926 2.738302,-3.8326 2.919573,-0.31526 3.02786,-0.31677 6.049497,-0.0839 z m 65.828105,0.16683 c 2.257915,0.46365 2.897625,1.021 2.875185,2.505 -0.0243,1.60913 -0.53449,1.86061 -3.791581,1.86904 -6.719555,0.0173 -10.583643,-2.47467 -6.759421,-4.35938 0.765601,-0.37731 5.862266,-0.38704 7.675817,-0.0147 z"
       id="path6" /></g><style
     type="text/css"
     id="style1">
	.st0{clip-path:url(#SVGID_2_);fill:#E50046;}
</style></svg>
